# xmcd CD database file
#
# Track frame offsets:
#	150
#	36827
#	77558
#	136605
#	175594
#	239471
#
# Disc length: 3606 seconds
#
# Revision: 0
# Processed by: cddbd v1.5.2PL0 Copyright (c) Steve Scherf et al.
# Submitted via: CDex 1.51
#
DISCID=3d0e1406
DTITLE=Various Artist - Miles From India CD2
DYEAR=2008
DGENRE=Jazz
TTITLE0=So What
TTITLE1=Miles Runs The Voodoo Down
TTITLE2=Blue in Green
TTITLE3=Great Expectations
TTITLE4=Ife (slow)
TTITLE5=Miles From India
EXTD=YEAR: 2008
EXTT0=
EXTT1=
EXTT2=
EXTT3=
EXTT4=
EXTT5=
PLAYORDER=
